<mxfile host="app.diagrams.net" modified="2024-01-22T19:38:07.282Z" agent="Mozilla/5.0 (Macintosh; Intel Mac OS X 10_15_7) AppleWebKit/537.36 (KHTML, like Gecko) Chrome/120.0.0.0 Safari/537.36" etag="sMdCPEH6F6LZ8NLuaSC9" version="22.1.21" type="device">
  <diagram name="Page-1" id="eh9vY4Q1JsIhWXZtybLQ">
    <mxGraphModel dx="475" dy="304" grid="1" gridSize="10" guides="1" tooltips="1" connect="1" arrows="1" fold="1" page="1" pageScale="1" pageWidth="827" pageHeight="1169" math="0" shadow="0">
      <root>
        <mxCell id="0" />
        <mxCell id="1" parent="0" />
        <mxCell id="CGIA9xkqjj0UwgmsLrs7-4" style="edgeStyle=orthogonalEdgeStyle;rounded=0;orthogonalLoop=1;jettySize=auto;html=1;exitX=1;exitY=0.5;exitDx=0;exitDy=0;entryX=0;entryY=0.5;entryDx=0;entryDy=0;startArrow=classic;startFill=1;" edge="1" parent="1" source="CGIA9xkqjj0UwgmsLrs7-1" target="CGIA9xkqjj0UwgmsLrs7-2">
          <mxGeometry relative="1" as="geometry" />
        </mxCell>
        <mxCell id="CGIA9xkqjj0UwgmsLrs7-1" value="B" style="rounded=0;whiteSpace=wrap;html=1;" vertex="1" parent="1">
          <mxGeometry x="40" y="40" width="40" height="40" as="geometry" />
        </mxCell>
        <mxCell id="CGIA9xkqjj0UwgmsLrs7-5" style="edgeStyle=orthogonalEdgeStyle;rounded=0;orthogonalLoop=1;jettySize=auto;html=1;exitX=1;exitY=0.5;exitDx=0;exitDy=0;entryX=0;entryY=0.5;entryDx=0;entryDy=0;startArrow=classic;startFill=1;" edge="1" parent="1" source="CGIA9xkqjj0UwgmsLrs7-2" target="CGIA9xkqjj0UwgmsLrs7-3">
          <mxGeometry relative="1" as="geometry" />
        </mxCell>
        <mxCell id="CGIA9xkqjj0UwgmsLrs7-2" value="A" style="rounded=0;whiteSpace=wrap;html=1;" vertex="1" parent="1">
          <mxGeometry x="120" y="40" width="40" height="40" as="geometry" />
        </mxCell>
        <mxCell id="CGIA9xkqjj0UwgmsLrs7-3" value="S" style="ellipse;whiteSpace=wrap;html=1;aspect=fixed;" vertex="1" parent="1">
          <mxGeometry x="200" y="40" width="40" height="40" as="geometry" />
        </mxCell>
        <mxCell id="CGIA9xkqjj0UwgmsLrs7-6" style="edgeStyle=orthogonalEdgeStyle;rounded=0;orthogonalLoop=1;jettySize=auto;html=1;exitX=1;exitY=0.5;exitDx=0;exitDy=0;entryX=0;entryY=0.5;entryDx=0;entryDy=0;startArrow=classic;startFill=1;" edge="1" parent="1" source="CGIA9xkqjj0UwgmsLrs7-7" target="CGIA9xkqjj0UwgmsLrs7-9">
          <mxGeometry relative="1" as="geometry" />
        </mxCell>
        <mxCell id="CGIA9xkqjj0UwgmsLrs7-7" value="B" style="rounded=0;whiteSpace=wrap;html=1;" vertex="1" parent="1">
          <mxGeometry x="280" y="40" width="40" height="40" as="geometry" />
        </mxCell>
        <mxCell id="CGIA9xkqjj0UwgmsLrs7-8" style="edgeStyle=orthogonalEdgeStyle;rounded=0;orthogonalLoop=1;jettySize=auto;html=1;exitX=1;exitY=0.5;exitDx=0;exitDy=0;entryX=0;entryY=0.5;entryDx=0;entryDy=0;startArrow=classic;startFill=1;dashed=1;strokeColor=#CCCCCC;" edge="1" parent="1" source="CGIA9xkqjj0UwgmsLrs7-9" target="CGIA9xkqjj0UwgmsLrs7-10">
          <mxGeometry relative="1" as="geometry" />
        </mxCell>
        <mxCell id="CGIA9xkqjj0UwgmsLrs7-9" value="A" style="rounded=0;whiteSpace=wrap;html=1;" vertex="1" parent="1">
          <mxGeometry x="360" y="40" width="40" height="40" as="geometry" />
        </mxCell>
        <mxCell id="CGIA9xkqjj0UwgmsLrs7-10" value="S" style="ellipse;whiteSpace=wrap;html=1;aspect=fixed;" vertex="1" parent="1">
          <mxGeometry x="440" y="40" width="40" height="40" as="geometry" />
        </mxCell>
        <mxCell id="CGIA9xkqjj0UwgmsLrs7-11" value="X" style="text;html=1;align=center;verticalAlign=middle;whiteSpace=wrap;rounded=0;fontColor=#AD0f0f;" vertex="1" parent="1">
          <mxGeometry x="414" y="45" width="10" height="30" as="geometry" />
        </mxCell>
      </root>
    </mxGraphModel>
  </diagram>
</mxfile>
